<?xml version="1.0" standalone="no"?>
<!DOCTYPE svg PUBLIC "-//W3C//DTD SVG 20010904//EN"
 "http://www.w3.org/TR/2001/REC-SVG-20010904/DTD/svg10.dtd">
<svg version="1.0" xmlns="http://www.w3.org/2000/svg"
 width="1080.000000pt" height="225.000000pt" viewBox="0 0 1080.000000 225.000000"
 preserveAspectRatio="xMidYMid meet">

<g transform="translate(0.000000,225.000000) scale(0.100000,-0.100000)"
fill="#000000" stroke="none">
<path d="M4450 1974 c-179 -6 -363 -13 -409 -13 l-84 -1 6 -82 c4 -46 18 -303
33 -573 15 -269 28 -492 29 -493 3 -3 574 22 780 34 l90 5 0 570 0 569 -60 -2
c-33 0 -206 -7 -385 -14z m381 -223 c1 -31 2 -78 3 -106 l1 -50 -123 -3 -123
-3 6 -162 c4 -89 10 -233 14 -320 3 -88 4 -160 1 -162 -3 -1 -73 -6 -156 -9
l-151 -7 -7 198 c-3 109 -9 254 -13 322 l-6 124 -122 -7 -122 -6 -6 67 c-4 38
-7 86 -7 109 l0 41 78 6 c42 4 208 11 367 17 160 6 301 12 315 13 44 4 50 -2
51 -62z m6 -433 c-2 -13 -4 -5 -4 17 -1 22 1 32 4 23 2 -10 2 -28 0 -40z m10
-265 c-3 -10 -5 -2 -5 17 0 19 2 27 5 18 2 -10 2 -26 0 -35z"/>
<path d="M9312 1950 c0 -19 2 -27 5 -17 2 9 2 25 0 35 -3 9 -5 1 -5 -18z"/>
<path d="M6276 1809 c-77 -11 -140 -43 -194 -97 -63 -63 -86 -120 -86 -217 -1
-196 75 -282 389 -442 142 -72 173 -91 223 -137 135 -125 81 -347 -100 -412
-57 -21 -170 -20 -233 1 -130 44 -205 140 -250 319 -18 74 -27 92 -43 94 -26
4 -29 -17 -38 -239 -7 -175 -6 -176 15 -182 17 -4 24 0 32 21 5 15 17 44 26
64 l16 37 54 -49 c111 -101 206 -135 358 -128 100 6 169 26 233 70 130 90 187
285 127 443 -48 128 -66 142 -430 335 -195 103 -267 194 -249 311 9 53 58 118
109 144 62 31 184 28 250 -7 91 -47 175 -157 204 -266 9 -30 17 -42 30 -42 20
0 20 -4 35 268 4 71 4 72 -20 72 -16 0 -24 -6 -24 -18 0 -9 -12 -34 -26 -55
l-25 -38 -20 25 c-73 92 -224 145 -363 125z"/>
<path d="M1161 1794 c0 -11 3 -14 6 -6 3 7 2 16 -1 19 -3 4 -6 -2 -5 -13z"/>
<path d="M1810 1716 l0 -33 -77 -7 c-43 -3 -150 -8 -238 -11 -88 -3 -184 -8
-213 -11 -51 -5 -53 -7 -50 -32 3 -24 9 -28 47 -33 58 -8 71 -27 71 -108 0
-64 12 -369 26 -692 l7 -156 -52 -7 c-47 -6 -52 -9 -49 -29 3 -21 7 -22 133
-22 72 0 202 2 290 5 l160 5 3 -32 c3 -29 7 -33 33 -33 l30 0 -6 188 c-4 103
-8 193 -10 200 -3 6 -17 12 -33 12 l-30 0 -4 -88 c-7 -146 -51 -186 -203 -187
l-90 0 -12 265 c-17 408 -19 380 17 380 18 0 41 -11 61 -28 26 -23 31 -36 36
-90 6 -60 7 -62 35 -62 l28 0 -6 193 c-3 105 -8 195 -11 200 -2 4 -18 7 -34 7
l-31 0 7 -64 c7 -60 6 -63 -16 -69 -13 -4 -40 -7 -60 -7 l-36 0 -7 61 c-3 34
-6 85 -6 114 l0 52 71 7 c77 7 132 -4 164 -32 51 -46 60 -63 65 -135 5 -73 16
-89 49 -68 11 7 12 42 6 195 l-7 186 -29 0 c-26 0 -29 -3 -29 -34z"/>
<path d="M424 1668 c-3 -5 -9 -6 -14 -3 -5 3 -12 1 -15 -5 -5 -8 -12 -7 -23 2
-15 11 -15 11 -5 -3 7 -9 10 -19 6 -23 -4 -3 -8 -13 -9 -20 -1 -7 -5 -24 -9
-37 -8 -24 -8 -24 14 -5 14 12 18 22 11 26 -7 5 -6 11 5 20 8 7 15 9 15 5 0
-4 7 -2 15 5 8 7 12 17 8 23 -4 6 -1 7 7 2 9 -6 11 -4 5 5 -5 8 -4 11 3 6 6
-3 13 -3 16 2 3 5 -2 9 -10 9 -8 0 -17 -4 -20 -9z"/>
<path d="M464 1661 c-16 -10 -35 -25 -43 -34 -7 -9 -18 -14 -24 -10 -6 4 -7 1
-3 -6 6 -9 12 -9 25 3 10 9 21 13 26 9 4 -5 5 -1 0 7 -5 8 -4 12 0 7 16 -14
13 -34 -3 -33 -11 1 -17 -7 -17 -21 0 -12 -4 -25 -9 -30 -5 -4 -6 -3 -2 4 12
21 -11 23 -30 2 -19 -21 -27 -86 -12 -95 5 -3 5 -11 1 -17 -13 -21 -13 -39 1
-28 8 6 12 34 11 71 -1 34 2 63 7 66 5 3 7 0 6 -7 -2 -7 4 -14 12 -14 18 -1
41 15 36 24 -3 4 0 13 5 21 8 12 9 11 7 -5 -2 -13 2 -19 11 -17 12 3 12 0 1
-12 -7 -9 -10 -17 -6 -17 23 -5 32 -3 42 10 12 16 67 24 58 9 -3 -4 -10 -6
-15 -3 -5 4 -9 0 -9 -7 0 -11 -2 -11 -9 0 -6 10 -13 4 -25 -22 -9 -19 -20 -37
-25 -40 -4 -3 -23 9 -42 27 -19 17 -31 27 -26 23 4 -5 0 -17 -9 -27 -10 -11
-12 -19 -4 -24 5 -3 7 -12 3 -18 -4 -7 -8 -14 -8 -17 -3 -18 -18 -50 -23 -50
-10 0 -9 -146 0 -156 5 -4 3 -13 -3 -20 -7 -8 -7 -14 1 -19 8 -5 7 -11 -1 -21
-8 -9 -8 -14 -2 -12 9 3 15 -4 12 -14 -6 -23 -6 -64 0 -73 6 -9 7 -30 1 -37
-1 -2 -4 -24 -6 -51 -4 -42 -2 -48 18 -56 16 -6 28 -4 41 7 9 8 17 13 18 11 0
-2 2 -12 4 -21 2 -10 -1 -21 -6 -24 -5 -3 -8 -2 -7 3 2 4 -1 10 -6 13 -5 3
-10 -5 -11 -18 -1 -15 3 -21 12 -18 21 8 15 -2 -8 -15 -20 -10 -21 -9 -17 16
6 30 -16 46 -35 25 -9 -10 -9 -11 0 -6 17 9 27 -12 13 -28 -11 -14 -23 -92
-12 -82 3 3 12 0 20 -7 13 -10 14 -9 7 3 -14 22 -15 64 -2 51 8 -8 16 -6 28 5
9 8 26 17 36 19 10 2 19 4 21 5 1 2 5 3 10 4 4 1 12 5 19 9 10 6 11 2 4 -32
-1 -2 -7 2 -15 8 -10 9 -15 8 -19 -3 -3 -8 -14 -13 -24 -12 -29 5 -36 -5 -17
-25 9 -10 22 -16 28 -12 6 4 3 -3 -7 -14 -9 -11 -14 -23 -10 -28 5 -4 3 -5 -3
-2 -6 4 -19 -2 -28 -12 -13 -14 -14 -20 -4 -28 17 -12 39 -11 36 2 -2 6 -7 9
-11 7 -5 -1 -6 2 -3 7 7 10 25 9 44 -3 11 -6 10 -12 -4 -27 -13 -14 -20 -16
-31 -8 -7 6 -13 10 -14 8 -5 -22 -4 -49 1 -49 3 0 12 6 19 13 11 10 13 10 7 0
-4 -8 -2 -13 6 -13 8 0 6 -5 -5 -11 -9 -5 -21 -8 -26 -4 -5 3 -12 1 -15 -4 -3
-5 2 -11 12 -13 24 -6 67 6 67 19 0 6 4 15 9 20 5 4 6 3 3 -3 -7 -13 11 -31
31 -30 6 1 11 6 10 11 -2 6 -7 9 -12 7 -5 -2 -4 3 3 12 14 16 5 25 -23 20 -14
-2 -16 0 -7 9 12 12 42 19 38 9 -1 -4 3 -8 8 -10 13 -3 16 79 4 95 -7 7 -6 14
1 18 16 10 12 45 -6 45 -8 0 -12 5 -9 10 4 6 10 8 14 6 10 -7 6 142 -4 152 -5
4 -5 1 0 -7 5 -9 4 -12 -2 -8 -7 5 -4 20 8 44 17 34 18 38 2 55 -16 18 -18 17
-47 -9 -17 -16 -24 -20 -17 -10 7 9 10 17 6 17 -4 0 -2 6 4 14 7 8 20 13 29
11 24 -4 41 13 37 35 -2 11 1 22 6 25 5 4 7 10 4 15 -3 5 3 7 15 5 11 -2 22 0
25 6 4 5 -5 9 -18 9 -23 0 -62 -31 -52 -42 3 -3 -1 -11 -9 -17 -22 -18 -15 13
9 39 10 11 14 20 8 20 -6 0 -9 11 -8 25 2 14 -1 27 -6 31 -5 3 -9 10 -9 15 0
6 4 8 9 5 10 -7 9 20 -2 30 -3 4 -2 16 4 26 9 16 8 19 -3 16 -7 -3 -13 -14
-13 -26 0 -11 -3 -23 -7 -26 -5 -3 -6 -3 -3 1 8 11 -16 33 -29 26 -7 -4 -6 -1
1 9 7 8 11 17 8 20 -3 3 1 11 9 17 11 9 16 9 22 0 4 -7 3 -9 -4 -5 -6 3 -13 2
-16 -3 -4 -5 -2 -12 3 -15 15 -9 25 14 27 62 2 39 1 42 -14 30 -14 -11 -14
-10 1 12 9 13 17 30 17 37 0 17 36 53 45 45 3 -4 32 -7 63 -8 31 -1 57 -3 57
-4 0 -7 36 -6 40 0 3 5 -4 7 -15 5 -12 -2 -18 0 -15 6 4 5 1 8 -6 7 -7 -2 -13
4 -14 12 0 8 -6 16 -12 16 -7 1 -15 3 -18 4 -3 1 -9 3 -14 4 -5 0 -13 4 -17 8
-4 4 -14 2 -23 -5 -14 -10 -14 -10 -4 4 16 20 5 33 -15 17 -8 -7 -21 -13 -29
-14 -14 -2 -14 0 1 14 9 9 27 17 39 17 13 1 21 6 19 15 -3 11 0 11 14 -1 16
-12 17 -12 9 1 -7 13 -6 13 7 2 11 -9 18 -10 23 -2 3 6 11 7 17 4 6 -4 8 -3 5
3 -3 5 -23 9 -44 8 -21 -1 -42 1 -48 5 -9 6 -48 6 -60 0 -13 -6 -51 -5 -61 1
-5 5 -23 0 -40 -10z m32 -11 c0 -11 4 -20 9 -20 6 0 10 6 10 13 0 6 9 12 20
12 11 0 25 3 30 6 16 9 55 5 55 -6 0 -5 -3 -10 -7 -10 -5 0 -13 -4 -20 -8 -6
-4 -14 -3 -18 3 -10 16 -24 2 -20 -19 2 -11 -6 -27 -18 -38 -22 -18 -22 -18
-6 2 17 22 19 45 4 44 -5 0 -9 -8 -7 -17 2 -11 0 -13 -5 -6 -4 6 -15 10 -24 9
-12 -2 -15 4 -13 24 2 30 3 31 8 31 2 0 3 -9 2 -20z m165 -87 c7 -7 1 -9 -18
-7 -36 3 -35 2 -29 13 7 11 33 8 47 -6z m-155 -115 c4 4 3 0 -4 -9 -15 -21 -3
-32 17 -17 11 9 10 6 -2 -9 -11 -12 -27 -20 -38 -18 -10 2 -21 0 -24 -6 -6 -8
16 -14 38 -10 10 2 -10 -36 -23 -44 -6 -3 -11 -1 -11 4 -1 6 -2 16 -3 21 -2
20 -21 4 -21 -17 1 -26 -7 -29 -23 -10 -7 8 -6 19 3 37 8 14 14 21 15 16 0 -5
9 -1 20 9 11 10 17 21 15 26 -3 4 -1 10 5 14 6 4 7 12 3 18 -5 8 -2 8 9 0 8
-7 19 -9 24 -5z m-62 -29 c-3 -5 -10 -7 -15 -3 -5 3 -7 10 -3 15 3 5 10 7 15
3 5 -3 7 -10 3 -15z m-58 -84 c-3 -8 0 -15 7 -16 9 0 9 -2 -1 -6 -6 -2 -9 -10
-5 -16 4 -7 8 -16 8 -21 0 -5 8 -10 17 -12 19 -2 32 12 33 35 0 8 7 17 15 19
13 5 13 3 0 -13 -9 -11 -10 -16 -3 -11 7 4 22 9 33 11 17 3 19 1 9 -16 -8 -15
-14 -18 -23 -10 -10 8 -17 6 -30 -8 -14 -15 -14 -20 -3 -29 8 -7 17 -8 21 -4
4 4 6 0 4 -8 -1 -8 3 -14 10 -12 17 3 15 -2 -7 -22 -17 -16 -18 -16 -17 3 0
11 -3 19 -9 18 -5 -1 -9 -5 -7 -10 1 -4 -1 -6 -5 -5 -5 2 -8 -1 -8 -7 0 -5 4
-9 9 -7 5 2 4 -3 -2 -11 -13 -16 -5 -30 12 -20 18 12 73 10 73 -2 0 -7 -21
-11 -59 -10 -38 1 -55 -2 -48 -9 6 -6 5 -15 -3 -25 -7 -9 -8 -12 -1 -8 8 5 11
-6 9 -36 -3 -52 2 -62 22 -45 13 10 51 23 41 13 -1 -2 -6 -3 -9 -2 -4 1 -15
-6 -25 -15 -11 -9 -22 -17 -26 -17 -5 -1 -8 -4 -8 -8 0 -12 23 -11 40 1 8 6 6
1 -4 -12 -11 -12 -21 -20 -24 -17 -3 3 -13 -2 -21 -10 -15 -13 -17 -10 -17 30
0 24 4 41 8 39 3 -2 9 0 12 5 4 5 2 12 -4 16 -6 4 -8 10 -5 15 3 5 1 11 -4 14
-5 4 -6 19 -2 34 6 24 7 39 2 57 0 3 -1 8 -2 13 0 4 -5 12 -10 18 -6 7 -3 16
8 25 9 8 14 9 10 2 -10 -16 9 -26 20 -10 22 29 -3 57 -32 36 -7 -5 -10 10 -9
44 1 57 1 57 10 57 3 0 4 -7 0 -15z m171 -80 c0 -8 -4 -12 -9 -9 -4 3 -8 9 -8
15 0 5 4 9 8 9 5 0 9 -7 9 -15z m-33 -66 c-3 -5 -10 -7 -15 -3 -5 3 -7 10 -3
15 3 5 10 7 15 3 5 -3 7 -10 3 -15z m-64 -59 c3 -1 9 -2 13 -1 5 1 7 -4 5 -11
-7 -19 -51 -16 -54 3 -2 15 12 18 36 9z m40 -30 c0 -5 -5 -10 -11 -10 -5 0 -7
5 -4 10 3 6 8 10 11 10 2 0 4 -4 4 -10z m31 -57 c-4 -16 -12 -27 -17 -26 -5 1
-16 -4 -24 -10 -13 -10 -13 -10 -1 6 7 9 10 17 6 17 -6 0 34 38 42 40 1 0 -2
-12 -6 -27z m19 -68 c0 -8 -3 -14 -7 -14 -5 1 -10 0 -13 -1 -19 -7 -39 -7 -34
1 3 5 9 7 14 4 4 -3 13 2 20 10 16 19 20 19 20 0z m13 -57 c-4 -7 -8 -16 -8
-20 0 -3 -4 -10 -8 -15 -5 -4 -7 -1 -5 7 2 8 -3 14 -10 12 -8 -1 -11 2 -7 8 3
6 10 8 15 5 5 -3 11 -1 15 5 3 5 8 10 11 10 3 0 2 -6 -3 -12z m-16 -106 c-10
-10 -14 -22 -10 -26 5 -4 3 -6 -3 -4 -7 2 -11 -1 -10 -7 0 -5 4 -9 9 -7 12 4
8 -5 -10 -19 -9 -8 -14 -9 -10 -3 7 13 -15 37 -26 29 -4 -3 -4 -2 -1 3 3 4 11
7 17 7 7 0 12 7 12 15 0 12 14 22 44 29 2 1 -3 -7 -12 -17z m13 -66 c0 -2 -8
-10 -17 -17 -16 -13 -17 -12 -4 4 13 16 21 21 21 13z"/>
<path d="M576 1648 c3 -5 10 -6 15 -3 13 9 11 12 -6 12 -8 0 -12 -4 -9 -9z"/>
<path d="M388 1199 c6 -9 10 -18 7 -21 -3 -3 1 -10 8 -16 10 -9 14 -8 14 3 0
8 -10 23 -21 32 -15 14 -18 14 -8 2z"/>
<path d="M393 975 c0 -8 4 -12 9 -9 5 3 6 10 3 15 -9 13 -12 11 -12 -6z"/>
<path d="M730 1680 c-1 -3 -3 -31 -4 -62 -2 -47 1 -55 12 -46 10 9 12 8 10 -3
-2 -9 5 -14 18 -13 21 1 25 -10 12 -32 -4 -6 4 -21 17 -34 13 -13 22 -26 20
-31 -7 -10 15 -24 40 -24 25 -1 47 14 39 27 -3 5 -13 4 -22 -3 -14 -11 -14
-10 0 6 25 27 68 28 63 3 -4 -16 -2 -18 10 -8 8 7 13 16 10 20 -3 5 -1 12 5
15 6 4 10 3 9 -2 -4 -20 2 -24 19 -12 9 7 14 9 10 5 -4 -5 -2 -16 4 -24 10
-12 8 -13 -12 -10 -14 2 -25 -2 -25 -9 0 -6 -4 -15 -9 -20 -5 -4 -6 -3 -2 4 8
15 -55 12 -76 -3 -7 -6 -22 -9 -34 -9 -16 2 -20 -3 -20 -21 1 -13 5 -26 9 -30
4 -4 1 -14 -5 -23 -7 -9 -1 -6 14 7 47 43 39 5 -10 -40 -57 -54 -85 -87 -62
-73 22 14 40 15 40 3 0 -6 -6 -8 -14 -5 -8 3 -20 -1 -26 -9 -7 -8 -9 -14 -5
-14 4 0 2 -6 -4 -14 -9 -10 -8 -15 3 -19 16 -6 41 17 32 31 -3 5 1 9 9 9 8 0
13 -5 12 -11 -1 -6 4 -10 11 -8 10 2 10 -2 1 -20 -11 -21 -13 -21 -19 -4 -6
17 -7 17 -20 0 -8 -9 -14 -19 -12 -21 1 -1 -1 -3 -5 -2 -5 1 -7 5 -5 11 6 21
-34 1 -45 -23 -12 -25 -47 -62 -41 -43 2 5 0 9 -3 9 -3 0 -13 6 -21 12 -12 11
-18 10 -32 -5 -19 -22 -10 -37 12 -19 9 6 13 8 10 2 -8 -14 93 -17 109 -3 14
11 7 32 -8 22 -5 -3 -6 -10 -3 -16 4 -7 2 -8 -5 -4 -8 6 -9 12 -2 20 6 7 7 17
3 22 -4 4 0 3 8 -3 19 -14 31 -14 50 0 8 6 6 2 -4 -11 -11 -12 -16 -22 -11
-22 4 0 2 -7 -5 -15 -10 -12 -7 -19 17 -41 15 -14 27 -29 27 -32 -1 -4 2 -6 6
-5 9 3 6 -54 -4 -64 -11 -11 -6 -24 7 -16 6 4 15 8 19 8 3 0 10 4 15 9 5 5 2
6 -6 1 -10 -6 -12 -4 -6 4 5 9 11 9 17 3 13 -13 2 -32 -18 -32 -8 0 -14 -4
-14 -10 0 -5 5 -10 11 -10 8 0 7 -5 -2 -16 -24 -29 -22 -83 3 -67 17 10 42 14
33 5 -4 -4 -11 -7 -16 -7 -5 0 -9 -4 -8 -10 1 -5 5 -9 9 -8 7 2 7 -19 0 -37
-1 -3 -3 -9 -5 -15 -1 -5 -3 -14 -5 -20 -7 -24 -4 -75 5 -77 50 -7 66 -3 82
21 10 14 18 30 18 35 0 5 8 10 18 12 15 2 16 0 6 -12 -9 -11 -8 -14 4 -14 8 0
20 -6 26 -14 10 -11 9 -14 -1 -12 -7 1 -19 5 -26 10 -7 4 -19 2 -27 -4 -17
-14 -20 -30 -5 -30 6 0 10 7 10 16 0 8 5 12 10 9 6 -4 7 -11 4 -17 -4 -7 2 -7
17 -2 13 4 33 8 45 8 17 0 19 3 10 22 -6 12 -15 20 -21 16 -5 -3 -4 1 3 10 14
17 6 51 -11 41 -6 -4 -7 -1 -1 8 12 20 14 38 4 44 -5 3 -7 -3 -5 -13 2 -11 -3
-19 -11 -19 -9 0 -11 4 -4 12 14 17 0 27 -19 12 -14 -11 -14 -10 -2 5 7 10 16
16 20 14 13 -9 34 12 26 25 -5 7 -8 32 -8 56 0 24 -4 46 -10 50 -6 4 -7 1 -2
-8 7 -12 6 -12 -7 -1 -14 11 -18 10 -27 -5 -6 -10 -11 -14 -11 -9 0 5 -7 2
-16 -5 -9 -7 -23 -14 -33 -15 -14 -2 -14 -1 2 10 9 7 17 19 17 26 0 7 8 10 20
7 11 -3 23 -1 26 4 3 5 9 7 14 4 4 -3 13 2 20 10 12 15 11 16 -12 19 -7 0 -13
13 -13 28 -1 15 2 25 6 22 4 -2 6 -13 4 -24 -2 -12 0 -18 5 -15 10 6 8 24 -5
45 -10 16 -12 21 -14 46 0 9 -6 12 -13 8 -8 -5 -9 -2 -5 9 7 19 -3 22 -21 7
-6 -6 -10 -7 -7 -4 2 4 0 15 -6 26 -9 16 -17 18 -51 13 -27 -5 -38 -4 -34 3 3
6 2 13 -4 17 -16 10 -2 24 20 20 10 -2 24 3 31 11 6 8 17 14 23 14 7 0 22 10
33 23 31 34 42 77 18 69 -5 -2 -6 0 -2 5 5 4 14 8 20 8 7 0 12 7 12 15 0 8 4
20 8 27 4 6 2 15 -4 19 -8 5 -9 3 -4 -6 5 -9 4 -11 -4 -6 -9 6 -9 11 1 23 14
18 19 81 6 89 -5 3 -6 9 -3 13 2 5 -6 18 -19 30 -16 15 -26 19 -31 12 -3 -6
-10 -9 -15 -6 -4 3 -13 -2 -20 -10 -6 -7 -18 -11 -26 -8 -8 3 -22 -1 -32 -8
-15 -12 -16 -12 -6 1 9 13 11 31 4 45 -1 3 -3 11 -4 18 0 6 -9 12 -18 12 -10
0 -18 -4 -17 -10 1 -5 6 -8 13 -7 6 2 7 0 3 -4 -27 -27 -44 -1 -19 28 15 18 4
32 -14 17 -16 -13 -13 16 4 33 13 13 22 8 26 -14 4 -28 17 -40 32 -27 16 13 9
33 -8 23 -7 -4 -8 -2 -4 4 4 7 3 12 -3 12 -7 0 -7 8 -1 26 l10 25 -27 -19
c-16 -10 -36 -22 -46 -25 -10 -4 -16 -11 -13 -15 3 -5 -1 -9 -9 -9 -10 0 -12
4 -5 12 6 7 6 15 -1 22 -7 7 -7 13 -1 17 6 3 13 2 17 -3 7 -12 35 -3 35 10 0
5 -3 8 -7 8 -5 -1 -10 0 -13 1 -19 7 -39 7 -34 -1 3 -5 1 -9 -5 -9 -5 0 -12 6
-14 13 -3 6 -6 10 -7 7z m105 -198 c-3 -3 0 -11 6 -19 6 -7 9 -13 5 -13 -3 0
-9 0 -13 0 -5 0 -8 3 -8 8 0 4 -3 12 -7 18 -4 6 -1 11 7 11 8 0 13 -3 10 -5z
m130 -82 c3 -5 1 -10 -4 -10 -6 0 -11 5 -11 10 0 6 2 10 4 10 3 0 8 -4 11 -10z
m-119 -26 c1 -9 0 -13 -4 -10 -3 4 -7 14 -8 22 -1 9 0 13 4 10 3 -4 7 -14 8
-22z m74 6 c0 -5 -5 -10 -11 -10 -5 0 -7 5 -4 10 3 6 8 10 11 10 2 0 4 -4 4
-10z m70 -50 c0 -5 -4 -10 -10 -10 -5 0 -10 5 -10 10 0 6 5 10 10 10 6 0 10
-4 10 -10z m-106 -29 c-9 -9 -34 -9 -34 -1 0 5 9 8 20 7 10 -1 17 -3 14 -6z
m-48 -25 c0 -14 -3 -23 -7 -20 -6 3 -6 22 0 42 3 10 7 -2 7 -22z m59 -5 c-9
-8 -36 -10 -30 -2 2 4 11 8 20 8 8 0 13 -3 10 -6z m61 -26 c-1 -8 -5 -17 -8
-21 -5 -4 -4 16 1 34 3 9 9 -1 7 -13z m-67 -2 c-1 -5 0 -10 1 -13 7 -19 7 -41
0 -45 -5 -3 -7 3 -5 15 2 11 -1 22 -6 25 -5 4 -7 11 -4 16 7 11 15 12 14 2z
m-49 -97 c0 -3 -4 -8 -10 -11 -5 -3 -10 -1 -10 4 0 6 5 11 10 11 6 0 10 -2 10
-4z m77 -23 c-4 -3 -1 -13 5 -22 10 -13 10 -14 -2 -4 -9 8 -18 9 -25 3 -6 -5
-21 -11 -32 -13 -12 -2 -28 -9 -36 -16 -13 -10 -15 -9 -13 4 4 26 25 42 35 27
7 -11 9 -11 14 2 4 9 13 13 22 10 8 -3 15 -1 15 5 0 6 5 11 12 11 6 0 8 -3 5
-7z m-43 -65 c-4 -5 -9 -7 -12 -4 -3 3 -12 0 -21 -7 -14 -10 -14 -10 -4 4 13
16 46 23 37 7z m116 -3 c0 -1 -9 -10 -21 -21 -15 -14 -20 -15 -17 -4 2 8 -3
14 -10 12 -8 -1 -11 1 -8 6 4 6 56 13 56 7z m-64 -50 c-1 -8 -8 -21 -16 -28
-10 -10 -11 -9 -4 3 5 8 9 18 10 23 3 14 4 17 8 17 2 0 3 -7 2 -15z m-46 1 c0
-2 -8 -10 -17 -17 -16 -13 -17 -12 -4 4 13 16 21 21 21 13z m87 -14 c-10 -10
-14 -22 -10 -27 5 -4 2 -5 -5 -1 -11 6 -10 12 4 27 9 10 19 19 22 19 3 0 -2
-8 -11 -18z m53 -88 c0 -8 -19 -13 -24 -6 -3 5 1 9 9 9 8 0 15 -2 15 -3z
m-130 -17 c0 -2 -9 -12 -20 -22 -24 -21 -27 -14 -4 9 15 15 24 20 24 13z m125
-24 c-1 -10 3 -24 9 -32 9 -12 8 -13 -4 -6 -8 6 -18 10 -22 11 -5 1 -11 2 -15
3 -5 1 26 41 33 41 1 0 1 -8 -1 -17z m-77 -12 c-2 -19 4 -22 20 -10 14 11 13
9 -2 -9 -19 -22 -31 -21 -31 1 0 7 -5 12 -12 12 -6 0 -14 2 -17 6 -3 3 5 5 19
5 13 0 23 -2 23 -5z m-32 -56 c-1 -8 -5 -17 -8 -21 -5 -4 -4 16 1 34 3 9 9 -1
7 -13z m32 -7 c-2 -7 4 -12 12 -10 8 2 11 0 7 -4 -22 -22 -38 -9 -28 24 3 9
11 0 9 -10z m52 -34 c0 -8 -5 -12 -10 -9 -6 4 -8 11 -5 16 9 14 15 11 15 -7z
m-95 -5 c-4 -6 2 -13 14 -16 17 -4 19 -8 10 -19 -6 -8 -15 -11 -21 -8 -5 3
-15 0 -23 -6 -9 -7 -15 -8 -15 -2 0 5 7 15 15 22 8 6 14 15 13 18 -1 13 2 22
8 22 3 0 2 -5 -1 -11z m29 -80 c-3 -5 -9 -7 -14 -4 -5 3 -11 1 -15 -5 -4 -6
-11 -8 -16 -4 -5 3 -7 10 -3 15 3 5 9 7 14 4 5 -3 11 -1 15 5 4 6 11 8 16 4 5
-3 7 -10 3 -15z"/>
<path d="M8695 1664 c-180 -40 -297 -156 -340 -336 -49 -209 35 -483 181 -588
163 -117 433 -102 580 32 99 91 144 212 144 387 0 125 -19 210 -67 303 -43 82
-103 140 -189 180 -81 38 -200 46 -309 22z m267 -54 c109 -41 196 -148 233
-286 24 -89 22 -262 -4 -344 -42 -135 -143 -234 -271 -266 -84 -21 -204 -15
-282 15 -146 56 -239 231 -241 456 -2 202 73 345 215 410 31 14 76 30 100 35
66 14 186 5 250 -20z"/>
<path d="M9280 1659 c0 -15 5 -20 22 -17 34 5 37 38 4 38 -20 0 -26 -5 -26
-21z"/>
<path d="M873 1644 c-3 -9 -1 -25 5 -34 8 -14 8 -21 -2 -30 -12 -9 -14 -29 -6
-50 1 -3 2 -8 2 -11 -1 -9 46 -4 55 5 5 5 2 6 -6 1 -10 -6 -12 -4 -7 4 6 9 11
9 21 1 10 -8 15 -8 21 1 5 8 3 9 -5 4 -8 -4 -6 3 3 17 15 24 13 58 -4 58 -15
0 -41 -38 -31 -45 11 -6 12 -5 15 15 1 10 15 15 22 7 6 -6 -25 -31 -43 -33
-10 -2 -13 4 -10 16 2 10 1 24 -4 31 -4 7 -4 18 1 24 4 6 2 16 -6 23 -12 11
-15 10 -21 -4z m12 -81 c-1 -10 3 -25 9 -33 9 -13 9 -13 -6 -2 -13 10 -16 26
-9 50 4 11 9 -2 6 -15z"/>
<path d="M696 1641 c-4 -5 -15 -8 -26 -6 -26 5 -34 -10 -13 -26 9 -8 18 -13
20 -11 1 1 4 2 6 1 26 -8 34 -4 33 17 -2 27 -11 39 -20 25z"/>
<path d="M1150 1620 c0 -20 5 -30 15 -30 10 0 15 10 15 30 0 20 -5 30 -15 30
-10 0 -15 -10 -15 -30z"/>
<path d="M9424 1608 c18 -85 29 -148 46 -273 11 -79 22 -160 25 -181 4 -37 33
-244 54 -384 6 -36 15 -103 21 -150 6 -47 13 -101 16 -120 3 -19 6 -46 7 -60
2 -14 6 -31 10 -37 5 -8 3 -13 -5 -13 -10 0 -10 -2 1 -9 7 -5 11 -13 8 -18 -4
-6 18 -6 56 -1 102 14 771 150 781 160 9 7 10 55 2 103 -2 11 -10 19 -20 19
-18 -2 -22 11 -6 21 8 5 7 11 -1 21 -6 8 -8 14 -3 14 4 0 3 5 -4 12 -7 7 -12
17 -12 22 0 6 5 4 10 -4 5 -8 10 -10 10 -4 0 6 -6 17 -14 24 -8 6 -12 18 -10
25 3 8 2 20 -2 27 -4 7 -9 26 -10 43 -2 51 -12 88 -39 143 -24 51 -43 61 -44
24 -1 -37 -5 -52 -12 -52 -4 0 -6 -11 -3 -25 3 -17 0 -24 -8 -23 -7 2 -12 -5
-12 -15 1 -10 -19 -38 -45 -63 -111 -108 -245 -128 -353 -52 -9 7 -20 9 -24 5
-10 -10 -13 -57 -4 -57 4 0 6 -9 3 -20 -3 -12 2 -29 11 -39 14 -15 14 -20 4
-24 -10 -4 -10 -6 0 -6 6 -1 12 -6 12 -12 0 -5 -6 -7 -12 -3 -10 6 -10 4 -2
-7 6 -8 10 -24 9 -36 -1 -12 2 -20 6 -17 5 2 7 -15 5 -38 l-3 -43 -107 -15
c-110 -16 -128 -14 -132 17 -2 10 -8 41 -13 68 -6 28 -15 95 -21 150 -6 55
-15 129 -21 165 -6 36 -12 85 -14 110 -1 25 -4 47 -5 50 -2 3 -4 10 -5 15 -4
28 -16 116 -21 160 -7 69 -12 106 -19 135 -19 83 -18 99 7 105 30 6 191 26
192 22 1 -1 7 -13 14 -26 11 -19 11 -22 0 -16 -10 6 -11 5 0 -6 10 -11 18 -7
44 25 17 21 52 47 77 58 53 22 158 33 177 17 7 -6 17 -8 22 -5 5 3 23 -4 41
-15 18 -11 38 -16 44 -13 7 4 9 3 4 -1 -11 -13 23 -44 41 -38 9 4 13 2 9 -4
-4 -6 5 -21 20 -34 21 -16 23 -20 8 -16 -16 6 -14 2 8 -17 15 -14 27 -32 27
-39 0 -15 29 -33 31 -19 0 4 2 18 3 31 2 14 -3 50 -10 80 -7 31 -18 83 -24
116 -12 60 -12 60 -48 62 -21 0 -140 4 -267 7 -126 3 -294 8 -373 11 l-143 6
5 -23z"/>
<path d="M806 1612 c-3 -5 1 -9 9 -9 8 0 12 4 9 9 -3 4 -7 8 -9 8 -2 0 -6 -4
-9 -8z"/>
<path d="M2385 1593 l-51 -4 -59 -172 c-32 -95 -79 -217 -105 -273 -46 -96
-47 -104 -54 -222 l-8 -122 36 0 c50 0 605 -28 700 -35 l79 -7 -5 76 c-3 42
-7 79 -10 82 -3 3 -72 0 -153 -6 -81 -6 -149 -9 -152 -7 -2 3 -7 30 -10 61
l-6 56 37 0 c41 0 41 1 21 39 -14 28 -16 28 -87 24 -144 -8 -155 -11 -167 -45
-6 -17 -11 -32 -11 -32 0 -1 15 0 34 2 l34 4 7 -56 c4 -32 6 -59 3 -61 -6 -6
-271 -24 -280 -19 -4 3 -8 29 -8 58 0 44 3 55 19 59 15 3 37 61 105 270 47
146 90 268 94 271 4 2 55 7 112 11 l105 7 127 -256 c104 -207 132 -256 148
-256 17 0 20 -7 21 -47 2 -34 3 -39 6 -18 5 33 -11 294 -28 478 -8 76 -17 124
-26 133 -12 11 -53 14 -216 12 -111 -1 -225 -3 -252 -5z"/>
<path d="M7610 1589 c-124 -4 -296 -9 -382 -11 -87 -3 -160 -7 -163 -10 -5 -5
11 -777 20 -928 2 -41 4 -92 4 -113 l1 -38 93 5 c50 3 191 8 312 11 382 9 700
17 702 19 4 4 -27 1013 -32 1044 l-6 32 -162 -2 c-89 0 -263 -5 -387 -9z m350
-249 c0 -17 -7 -20 -45 -20 l-45 0 0 -87 c0 -49 3 -172 7 -275 l6 -188 44 0
c30 0 45 -5 50 -15 3 -9 3 -18 0 -21 -2 -3 -58 -8 -124 -11 -116 -6 -120 -5
-125 15 -8 28 -2 32 49 32 l43 0 0 126 0 127 -46 -7 c-26 -3 -107 -6 -180 -6
l-134 0 0 -125 0 -125 50 0 c42 0 50 -3 50 -19 0 -27 -18 -31 -136 -31 -85 0
-106 3 -111 15 -8 22 -2 25 49 27 l46 2 -4 171 c-3 93 -7 216 -10 273 l-6 102
-44 0 c-40 0 -44 2 -44 25 l0 25 120 0 c113 0 120 -1 120 -20 0 -17 -7 -20
-46 -20 l-46 0 4 -130 3 -131 180 7 c99 4 180 7 180 8 0 0 -1 59 -3 129 l-4
128 -46 -3 c-42 -3 -47 -1 -50 20 -3 22 -2 22 122 22 119 0 126 -1 126 -20z"/>
<path d="M966 1552 c-3 -5 3 -17 13 -26 11 -10 22 -13 25 -8 3 5 -3 17 -13 26
-11 10 -22 13 -25 8z"/>
<path d="M449 1548 c-7 -24 -4 -40 12 -54 10 -9 19 -15 20 -13 0 2 2 12 4 22
2 11 1 16 -2 13 -9 -9 -34 15 -27 25 3 5 3 9 0 9 -3 0 -6 -1 -7 -2z m22 -45
c13 -16 12 -17 -3 -4 -10 7 -18 15 -18 17 0 8 8 3 21 -13z"/>
<path d="M393 1515 c0 -8 4 -12 9 -9 5 3 6 10 3 15 -9 13 -12 11 -12 -6z"/>
<path d="M2112 1480 c0 -14 2 -19 5 -12 2 6 2 18 0 25 -3 6 -5 1 -5 -13z"/>
<path d="M909 1479 c0 -2 -2 -11 -4 -20 -1 -9 3 -16 10 -16 7 0 12 6 11 13 -2
13 -15 31 -17 23z"/>
<path d="M3400 1406 c-119 -33 -211 -109 -267 -222 -30 -61 -37 -88 -41 -153
-8 -138 26 -235 114 -330 90 -97 214 -141 342 -121 35 6 80 17 99 25 41 17 99
20 108 5 3 -5 10 -10 16 -10 11 0 11 147 1 205 l-8 40 -12 -49 c-38 -144 -116
-206 -262 -206 -83 0 -125 14 -168 54 -76 71 -107 195 -99 404 5 154 14 190
60 258 45 68 106 97 200 97 118 0 195 -55 233 -165 l19 -53 3 104 c1 57 1 106
-2 108 -2 3 -20 -1 -38 -7 -28 -10 -43 -9 -102 9 -76 24 -130 26 -196 7z"/>
<path d="M2471 1309 c-13 -46 -25 -92 -28 -101 -5 -16 2 -18 50 -18 30 0 62 3
70 6 17 6 18 1 -45 143 l-24 55 -23 -85z"/>
<path d="M9848 1314 c-47 -26 -68 -66 -72 -139 -1 -36 1 -68 4 -70 4 -3 8 -16
9 -30 3 -48 4 -54 13 -49 4 3 8 -5 8 -16 0 -25 53 -79 78 -79 9 0 28 -3 42 -6
32 -8 89 29 109 70 15 32 26 160 15 184 -4 9 -8 18 -8 21 -5 24 -39 100 -44
96 -3 -3 -10 2 -17 10 -16 23 -102 27 -137 8z"/>
<path d="M10263 1285 c0 -8 4 -12 9 -9 4 3 8 9 8 15 0 5 -4 9 -8 9 -5 0 -9 -7
-9 -15z"/>
<path d="M724 1226 c-3 -8 -2 -20 2 -27 4 -7 3 -9 -4 -5 -13 8 -27 -12 -27
-38 0 -11 -8 -20 -18 -22 -15 -2 -16 0 -5 13 7 9 13 26 13 37 1 12 6 20 13 19
7 -2 9 4 5 13 -5 14 -9 13 -24 -7 -10 -13 -19 -20 -19 -15 0 5 -9 1 -20 -9
-10 -9 -19 -20 -18 -24 2 -22 -3 -41 -11 -37 -12 8 -8 30 7 49 8 9 9 18 4 21
-13 8 -30 -15 -27 -36 2 -9 -3 -22 -11 -29 -8 -6 -11 -15 -8 -21 3 -5 12 -4
20 3 8 6 14 8 14 4 0 -5 9 0 20 10 11 10 17 21 15 26 -3 4 -1 10 4 13 4 3 8
-2 7 -12 0 -9 2 -17 5 -17 3 0 13 -6 22 -14 10 -7 17 -12 18 -10 0 2 2 12 4
23 2 10 14 30 27 45 14 14 24 32 24 40 -1 20 -25 26 -32 7z"/>
<path d="M405 811 c2 -9 4 -16 5 -16 7 0 6 -36 -1 -41 -5 -3 -8 -1 -7 4 6 19
-16 13 -23 -7 -9 -22 14 -50 26 -31 3 5 3 10 -1 10 -5 0 7 15 24 33 30 31 31
35 16 47 -23 20 -42 21 -39 1z"/>
<path d="M830 791 c0 -6 4 -12 9 -16 6 -3 8 -14 6 -25 -2 -12 0 -18 6 -15 5 4
7 10 4 15 -3 5 -1 12 5 15 8 5 7 11 -1 21 -13 16 -29 19 -29 5z"/>
<path d="M243 761 c0 -11 5 -18 9 -15 4 3 5 11 1 19 -7 21 -12 19 -10 -4z"/>
<path d="M9342 753 c-30 -6 -25 -36 6 -38 17 -1 22 4 22 22 0 13 -1 22 -2 22
-2 -1 -13 -4 -26 -6z"/>
<path d="M473 725 c0 -8 4 -12 9 -9 5 3 6 10 3 15 -9 13 -12 11 -12 -6z"/>
<path d="M387 694 c-9 -16 4 -55 17 -51 6 2 11 8 11 13 0 5 4 15 9 23 7 11 5
13 -7 8 -9 -3 -17 -1 -20 6 -2 7 -6 7 -10 1z"/>
<path d="M239 679 c-1 -2 -2 -16 -3 -31 -2 -21 0 -25 10 -18 12 11 13 34 1 46
-4 4 -7 5 -8 3z"/>
<path d="M581 672 c-1 -8 -6 -10 -13 -6 -10 5 -10 4 -1 -6 15 -16 28 -8 20 12
-4 11 -6 11 -6 0z"/>
<path d="M1194 598 c3 -13 6 -26 6 -30 0 -20 30 8 30 28 0 18 -6 24 -21 24
-17 0 -20 -4 -15 -22z"/>
<path d="M6822 457 c-7 -8 -8 -18 -4 -22 4 -5 1 -5 -5 -1 -22 12 -34 -3 -20
-24 18 -30 34 -24 42 16 7 41 3 51 -13 31z"/>
<path d="M6742 413 c-19 -8 -4 -23 24 -23 16 0 24 5 22 13 -5 13 -26 18 -46
10z"/>
<path d="M1898 243 c7 -3 16 -2 19 1 4 3 -2 6 -13 5 -11 0 -14 -3 -6 -6z"/>
<path d="M1948 243 c7 -3 16 -2 19 1 4 3 -2 6 -13 5 -11 0 -14 -3 -6 -6z"/>
</g>
</svg>
